{
    "asset" : {
        "generator" : "Khronos glTF Blender I/O v1.6.16",
        "version" : "2.0"
    },
    "scene" : 0,
    "scenes" : [
        {
            "name" : "Scene",
            "nodes" : [
                0,
                1,
                2,
                3,
                4
            ]
        }
    ],
    "nodes" : [
        {
            "name" : "Light",
            "rotation" : [
                0.16907575726509094,
                0.7558803558349609,
                -0.27217137813568115,
                0.570947527885437
            ],
            "translation" : [
                4.076245307922363,
                5.903861999511719,
                -1.0054539442062378
            ]
        },
        {
            "name" : "Camera",
            "rotation" : [
                0.483536034822464,
                0.33687159419059753,
                -0.20870360732078552,
                0.7804827094078064
            ],
            "translation" : [
                7.358891487121582,
                4.958309173583984,
                6.925790786743164
            ]
        },
        {
            "mesh" : 0,
            "name" : "Circle"
        },
        {
            "name" : "Sun"
        },
        {
            "name" : "Point",
            "rotation" : [
                0.9914143085479736,
                -0.055819377303123474,
                -0.11821828782558441,
                -0.002516687847673893
            ],
            "translation" : [
                0,
                -3.1688098907470703,
                0
            ]
        }
    ],
    "materials" : [
        {
            "doubleSided" : true,
            "name" : "Material.001",
            "pbrMetallicRoughness" : {}
        },
        {
            "doubleSided" : true,
            "name" : "Material",
            "pbrMetallicRoughness" : {}
        }
    ],
    "meshes" : [
        {
            "name" : "Circle",
            "primitives" : [
                {
                    "attributes" : {
                        "POSITION" : 0,
                        "NORMAL" : 1,
                        "TEXCOORD_0" : 2
                    },
                    "indices" : 3,
                    "material" : 0
                },
                {
                    "attributes" : {
                        "POSITION" : 4,
                        "NORMAL" : 5,
                        "TEXCOORD_0" : 6
                    },
                    "indices" : 7,
                    "material" : 1
                }
            ]
        }
    ],
    "accessors" : [
        {
            "bufferView" : 0,
            "componentType" : 5126,
            "count" : 617,
            "max" : [
                1.4383420944213867,
                0.21986815333366394,
                1.4383422136306763
            ],
            "min" : [
                -1.4383420944213867,
                0,
                -1.4383418560028076
            ],
            "type" : "VEC3"
        },
        {
            "bufferView" : 1,
            "componentType" : 5126,
            "count" : 617,
            "type" : "VEC3"
        },
        {
            "bufferView" : 2,
            "componentType" : 5126,
            "count" : 617,
            "type" : "VEC2"
        },
        {
            "bufferView" : 3,
            "componentType" : 5123,
            "count" : 1242,
            "type" : "SCALAR"
        },
        {
            "bufferView" : 4,
            "componentType" : 5126,
            "count" : 776,
            "max" : [
                1.4383420944213867,
                0.20970749855041504,
                1.4383422136306763
            ],
            "min" : [
                -1.4383420944213867,
                -0.010160684585571289,
                -1.4383418560028076
            ],
            "type" : "VEC3"
        },
        {
            "bufferView" : 5,
            "componentType" : 5126,
            "count" : 776,
            "type" : "VEC3"
        },
        {
            "bufferView" : 6,
            "componentType" : 5126,
            "count" : 776,
            "type" : "VEC2"
        },
        {
            "bufferView" : 7,
            "componentType" : 5123,
            "count" : 1242,
            "type" : "SCALAR"
        }
    ],
    "bufferViews" : [
        {
            "buffer" : 0,
            "byteLength" : 7404,
            "byteOffset" : 0
        },
        {
            "buffer" : 0,
            "byteLength" : 7404,
            "byteOffset" : 7404
        },
        {
            "buffer" : 0,
            "byteLength" : 4936,
            "byteOffset" : 14808
        },
        {
            "buffer" : 0,
            "byteLength" : 2484,
            "byteOffset" : 19744
        },
        {
            "buffer" : 0,
            "byteLength" : 9312,
            "byteOffset" : 22228
        },
        {
            "buffer" : 0,
            "byteLength" : 9312,
            "byteOffset" : 31540
        },
        {
            "buffer" : 0,
            "byteLength" : 6208,
            "byteOffset" : 40852
        },
        {
            "buffer" : 0,
            "byteLength" : 2484,
            "byteOffset" : 47060
        }
    ],
    "buffers" : [
        {
            "byteLength" : 49544,
            "uri" : "data:application/octet-stream;base64,"
        }
    ]
}
