{
    "asset" : {
        "generator" : "Khronos glTF Blender I/O v1.6.16",
        "version" : "2.0"
    },
    "scene" : 0,
    "scenes" : [
        {
            "name" : "Scene",
            "nodes" : [
                0,
                1,
                2,
                3
            ]
        }
    ],
    "nodes" : [
        {
            "name" : "Light",
            "rotation" : [
                0.16907575726509094,
                0.7558803558349609,
                -0.27217137813568115,
                0.570947527885437
            ],
            "translation" : [
                4.076245307922363,
                5.903861999511719,
                -1.0054539442062378
            ]
        },
        {
            "name" : "Camera",
            "rotation" : [
                0.483536034822464,
                0.33687159419059753,
                -0.20870360732078552,
                0.7804827094078064
            ],
            "translation" : [
                7.358891487121582,
                4.958309173583984,
                6.925790786743164
            ]
        },
        {
            "mesh" : 0,
            "name" : "PibHD (ConS)",
            "translation" : [
                7.776952743530273,
                0.38234302401542664,
                1.239151120185852
            ]
        },
        {
            "mesh" : 1,
            "name" : "Frijos Og",
            "rotation" : [
                -0.5,
                0.5,
                -0.5,
                0.4999999701976776
            ],
            "scale" : [
                0.04634106159210205,
                0.04634106159210205,
                0.04634106159210205
            ],
            "translation" : [
                6.866220474243164,
                0.06992857903242111,
                -2.1942248344421387
            ]
        }
    ],
    "materials" : [
        {
            "doubleSided" : true,
            "name" : "El bueno",
            "pbrMetallicRoughness" : {
                "baseColorTexture" : {
                    "index" : 0
                },
                "metallicFactor" : 0,
                "roughnessFactor" : 0.5
            }
        },
        {
            "doubleSided" : true,
            "name" : "Material.002",
            "pbrMetallicRoughness" : {
                "baseColorTexture" : {
                    "index" : 1
                },
                "roughnessFactor" : 0.44545453786849976
            }
        }
    ],
    "meshes" : [
        {
            "name" : "Cube.004",
            "primitives" : [
                {
                    "attributes" : {
                        "POSITION" : 0,
                        "NORMAL" : 1,
                        "TEXCOORD_0" : 2
                    },
                    "indices" : 3,
                    "material" : 0
                }
            ]
        },
        {
            "name" : "Circle",
            "primitives" : [
                {
                    "attributes" : {
                        "POSITION" : 4,
                        "NORMAL" : 5,
                        "TEXCOORD_0" : 6
                    },
                    "indices" : 7,
                    "material" : 1
                }
            ]
        }
    ],
    "textures" : [
        {
            "sampler" : 0,
            "source" : 0
        },
        {
            "sampler" : 0,
            "source" : 1
        }
    ],
    "images" : [
        {
            "bufferView" : 4,
            "mimeType" : "image/jpeg",
            "name" : "Pib Texture"
        },
        {
            "bufferView" : 9,
            "mimeType" : "image/jpeg",
            "name" : "Black Texture"
        }
    ],
    "accessors" : [
        {
            "bufferView" : 0,
            "componentType" : 5126,
            "count" : 13443,
            "max" : [
                1.330847144126892,
                -0.24299870431423187,
                1.3105995655059814
            ],
            "min" : [
                -1.7601269483566284,
                -1.0017799139022827,
                -4.240717887878418
            ],
            "type" : "VEC3"
        },
        {
            "bufferView" : 1,
            "componentType" : 5126,
            "count" : 13443,
            "type" : "VEC3"
        },
        {
            "bufferView" : 2,
            "componentType" : 5126,
            "count" : 13443,
            "type" : "VEC2"
        },
        {
            "bufferView" : 3,
            "componentType" : 5123,
            "count" : 63204,
            "type" : "SCALAR"
        },
        {
            "bufferView" : 5,
            "componentType" : 5126,
            "count" : 17524,
            "max" : [
                11.010053634643555,
                16.071855545043945,
                47.89714050292969
            ],
            "min" : [
                -1.9942784309387207,
                -102.69271850585938,
                -18.274139404296875
            ],
            "type" : "VEC3"
        },
        {
            "bufferView" : 6,
            "componentType" : 5126,
            "count" : 17524,
            "type" : "VEC3"
        },
        {
            "bufferView" : 7,
            "componentType" : 5126,
            "count" : 17524,
            "type" : "VEC2"
        },
        {
            "bufferView" : 8,
            "componentType" : 5123,
            "count" : 104832,
            "type" : "SCALAR"
        }
    ],
    "bufferViews" : [
        {
            "buffer" : 0,
            "byteLength" : 161316,
            "byteOffset" : 0
        },
        {
            "buffer" : 0,
            "byteLength" : 161316,
            "byteOffset" : 161316
        },
        {
            "buffer" : 0,
            "byteLength" : 107544,
            "byteOffset" : 322632
        },
        {
            "buffer" : 0,
            "byteLength" : 126408,
            "byteOffset" : 430176
        },
        {
            "buffer" : 0,
            "byteLength" : 67612,
            "byteOffset" : 556584
        },
        {
            "buffer" : 0,
            "byteLength" : 210288,
            "byteOffset" : 624196
        },
        {
            "buffer" : 0,
            "byteLength" : 210288,
            "byteOffset" : 834484
        },
        {
            "buffer" : 0,
            "byteLength" : 140192,
            "byteOffset" : 1044772
        },
        {
            "buffer" : 0,
            "byteLength" : 209664,
            "byteOffset" : 1184964
        },
        {
            "buffer" : 0,
            "byteLength" : 124202,
            "byteOffset" : 1394628
        }
    ],
    "samplers" : [
        {
            "magFilter" : 9729,
            "minFilter" : 9987
        }
    ],
    "buffers" : [
        {
            "byteLength" : 1518832,
            "uri" : "data:application/octet-stream;base64,"
        }
    ]
}
